<svg
  aria-hidden="true"
  style="position: absolute; width: 0; height: 0; overflow: hidden;"
  version="1.1"
  xmlns="http://www.w3.org/2000/svg"
  xmlns:xlink="http://www.w3.org/1999/xlink"
>
<defs>
<symbol id="icon-envelop" viewBox="0 0 32 32">
<path
        d="M29 4h-26c-1.65 0-3 1.35-3 3v20c0 1.65 1.35 3 3 3h26c1.65 0 3-1.35 3-3v-20c0-1.65-1.35-3-3-3zM12.461 17.199l-8.461 6.59v-15.676l8.461 9.086zM5.512 8h20.976l-10.488 7.875-10.488-7.875zM12.79 17.553l3.21 3.447 3.21-3.447 6.58 8.447h-19.579l6.58-8.447zM19.539 17.199l8.461-9.086v15.676l-8.461-6.59z"
      />
</symbol>

<symbol id="icon-mobile2" viewBox="0 0 32 32">
<path
        d="M24 0h-18c-1.1 0-2 0.9-2 2v28c0 1.1 0.9 2 2 2h18c1.1 0 2-0.9 2-2v-28c0-1.1-0.9-2-2-2zM15 30.556c-0.859 0-1.556-0.697-1.556-1.556s0.697-1.556 1.556-1.556 1.556 0.697 1.556 1.556-0.697 1.556-1.556 1.556zM24 26h-18v-22h18v22z"
      />
</symbol>

<symbol id="icon-facebook" viewBox="0 0 32 32">
<path
        d="M19 6h5v-6h-5c-3.86 0-7 3.14-7 7v3h-4v6h4v16h6v-16h5l1-6h-6v-3c0-0.542 0.458-1 1-1z"
      />
</symbol>

<symbol id="icon-instagram" viewBox="0 0 32 32">
<path
        d="M16 2.881c4.275 0 4.781 0.019 6.462 0.094 1.563 0.069 2.406 0.331 2.969 0.55 0.744 0.288 1.281 0.638 1.837 1.194 0.563 0.563 0.906 1.094 1.2 1.838 0.219 0.563 0.481 1.412 0.55 2.969 0.075 1.688 0.094 2.194 0.094 6.463s-0.019 4.781-0.094 6.463c-0.069 1.563-0.331 2.406-0.55 2.969-0.288 0.744-0.637 1.281-1.194 1.837-0.563 0.563-1.094 0.906-1.837 1.2-0.563 0.219-1.413 0.481-2.969 0.55-1.688 0.075-2.194 0.094-6.463 0.094s-4.781-0.019-6.463-0.094c-1.563-0.069-2.406-0.331-2.969-0.55-0.744-0.288-1.281-0.637-1.838-1.194-0.563-0.563-0.906-1.094-1.2-1.837-0.219-0.563-0.481-1.413-0.55-2.969-0.075-1.688-0.094-2.194-0.094-6.463s0.019-4.781 0.094-6.463c0.069-1.563 0.331-2.406 0.55-2.969 0.288-0.744 0.638-1.281 1.194-1.838 0.563-0.563 1.094-0.906 1.838-1.2 0.563-0.219 1.412-0.481 2.969-0.55 1.681-0.075 2.188-0.094 6.463-0.094zM16 0c-4.344 0-4.887 0.019-6.594 0.094-1.7 0.075-2.869 0.35-3.881 0.744-1.056 0.412-1.95 0.956-2.837 1.85-0.894 0.888-1.438 1.781-1.85 2.831-0.394 1.019-0.669 2.181-0.744 3.881-0.075 1.713-0.094 2.256-0.094 6.6s0.019 4.887 0.094 6.594c0.075 1.7 0.35 2.869 0.744 3.881 0.413 1.056 0.956 1.95 1.85 2.837 0.887 0.887 1.781 1.438 2.831 1.844 1.019 0.394 2.181 0.669 3.881 0.744 1.706 0.075 2.25 0.094 6.594 0.094s4.888-0.019 6.594-0.094c1.7-0.075 2.869-0.35 3.881-0.744 1.050-0.406 1.944-0.956 2.831-1.844s1.438-1.781 1.844-2.831c0.394-1.019 0.669-2.181 0.744-3.881 0.075-1.706 0.094-2.25 0.094-6.594s-0.019-4.887-0.094-6.594c-0.075-1.7-0.35-2.869-0.744-3.881-0.394-1.063-0.938-1.956-1.831-2.844-0.887-0.887-1.781-1.438-2.831-1.844-1.019-0.394-2.181-0.669-3.881-0.744-1.712-0.081-2.256-0.1-6.6-0.1v0z"
      />
<path
        d="M16 7.781c-4.537 0-8.219 3.681-8.219 8.219s3.681 8.219 8.219 8.219 8.219-3.681 8.219-8.219c0-4.537-3.681-8.219-8.219-8.219zM16 21.331c-2.944 0-5.331-2.387-5.331-5.331s2.387-5.331 5.331-5.331c2.944 0 5.331 2.387 5.331 5.331s-2.387 5.331-5.331 5.331z"
      />
<path
        d="M26.462 7.456c0 1.060-0.859 1.919-1.919 1.919s-1.919-0.859-1.919-1.919c0-1.060 0.859-1.919 1.919-1.919s1.919 0.859 1.919 1.919z"
      />
</symbol>

<symbol id="icon-twitter" viewBox="0 0 32 32">
<path
        d="M32 7.075c-1.175 0.525-2.444 0.875-3.769 1.031 1.356-0.813 2.394-2.1 2.887-3.631-1.269 0.75-2.675 1.3-4.169 1.594-1.2-1.275-2.906-2.069-4.794-2.069-3.625 0-6.563 2.938-6.563 6.563 0 0.512 0.056 1.012 0.169 1.494-5.456-0.275-10.294-2.888-13.531-6.862-0.563 0.969-0.887 2.1-0.887 3.3 0 2.275 1.156 4.287 2.919 5.463-1.075-0.031-2.087-0.331-2.975-0.819 0 0.025 0 0.056 0 0.081 0 3.181 2.263 5.838 5.269 6.437-0.55 0.15-1.131 0.231-1.731 0.231-0.425 0-0.831-0.044-1.237-0.119 0.838 2.606 3.263 4.506 6.131 4.563-2.25 1.762-5.075 2.813-8.156 2.813-0.531 0-1.050-0.031-1.569-0.094 2.913 1.869 6.362 2.95 10.069 2.95 12.075 0 18.681-10.006 18.681-18.681 0-0.287-0.006-0.569-0.019-0.85 1.281-0.919 2.394-2.075 3.275-3.394z"
      />
</symbol>

<symbol id="icon-linkedin2" viewBox="0 0 32 32">
<path
        d="M12 12h5.535v2.837h0.079c0.77-1.381 2.655-2.837 5.464-2.837 5.842 0 6.922 3.637 6.922 8.367v9.633h-5.769v-8.54c0-2.037-0.042-4.657-3.001-4.657-3.005 0-3.463 2.218-3.463 4.509v8.688h-5.767v-18z"
      />
<path d="M2 12h6v18h-6v-18z" />
<path
        d="M8 7c0 1.657-1.343 3-3 3s-3-1.343-3-3c0-1.657 1.343-3 3-3s3 1.343 3 3z"
      />
</symbol>

<symbol id="icon-sat" viewBox="0 0 66 70">
<path
        d="M65.3163 48.3385L46.8468 29.7337L48.8966 19.6373C49.4256 19.8438 49.9879 19.9517 50.5556 19.9558H50.5696C53.1777 19.9866 55.3169 17.8974 55.3479 15.2893C55.3788 12.6812 53.2894 10.542 50.6813 10.5111C48.0732 10.4803 45.934 12.5695 45.9031 15.1776C45.8965 15.7357 45.9888 16.2905 46.176 16.8163L35.326 18.1405L17.6276 0.35C17.4105 0.128479 17.1141 0.00247917 16.804 0C16.4977 0.00160417 16.2044 0.123521 15.9873 0.3395L12.6786 3.6295C12.2232 4.08508 12.2232 4.82358 12.6786 5.27917L14.459 7.08517C7.56162 19.7681 9.80191 35.4741 19.9703 45.7228C20.0636 45.8121 20.1718 45.8843 20.29 45.9363C20.2165 46.3311 20.1781 46.7317 20.1756 47.1333V60.6667H6.17562C2.95562 60.6705 0.346077 63.28 0.342285 66.5V68.8333C0.342285 69.4776 0.86466 70 1.50895 70H55.1756C55.8199 70 56.3423 69.4776 56.3423 68.8333V66.5C56.3385 63.28 53.729 60.6705 50.509 60.6667H36.509V54.6688C38.7021 55.1288 40.9367 55.3633 43.1776 55.3688C48.5548 55.363 53.8464 54.0225 58.5776 51.4675L60.3673 53.2677C60.5844 53.4892 60.8808 53.6152 61.191 53.6177C61.4972 53.6161 61.7905 53.4941 62.0076 53.2782L65.3163 49.9882C65.7717 49.5326 65.7717 48.7941 65.3163 48.3385ZM48.9246 13.6348C49.8383 12.726 51.3157 12.7301 52.2244 13.6437C53.1332 14.5574 53.1291 16.0348 52.2155 16.9435C51.7781 17.3785 51.1864 17.6226 50.5695 17.6225H50.5625C49.2739 17.6158 48.2345 16.5658 48.2412 15.2771C48.2445 14.6602 48.4918 14.0699 48.9291 13.6348H48.9246ZM46.1783 21.301L44.8693 27.7445L42.298 25.158L46.1783 21.301ZM44.853 19.3282L40.653 23.5037L37.4038 20.237L44.853 19.3282ZM50.509 63C52.442 63 54.009 64.567 54.009 66.5V67.6667H2.67562V66.5C2.67562 64.567 4.2426 63 6.17562 63H50.509ZM34.1756 58.3333V60.6667H22.509V58.3333H34.1756ZM22.509 56V47.1333C22.509 44.303 25.1258 42 28.3423 42C31.5588 42 34.1756 44.303 34.1756 47.1333V56H22.509ZM36.509 52.29V47.1333C36.509 43.0162 32.8456 39.6667 28.3423 39.6667C25.4306 39.622 22.7079 41.1041 21.165 43.5738C12.2887 34.2249 10.2899 20.2875 16.1805 8.82073L56.872 49.7455C50.5886 52.9419 43.3857 53.8418 36.509 52.29ZM61.2038 50.7943L59.56 49.1412L16.7923 6.11567L15.1415 4.46133L16.7923 2.81633L34.15 20.272C34.1581 20.272 34.1628 20.2872 34.171 20.293L62.8593 49.1493L61.2038 50.7943Z"
        fill="#212121"
      />
<path
        d="M28.3528 44.3333H28.3423C26.4093 44.3304 24.84 45.895 24.837 47.8281C24.8341 49.7611 26.3988 51.3304 28.3318 51.3333H28.3423C30.2753 51.3362 31.8446 49.7716 31.8475 47.8386C31.8505 45.9055 30.2858 44.3362 28.3528 44.3333ZM29.1695 48.6605C28.9498 48.8789 28.6522 49.0012 28.3423 49C27.698 48.9966 27.1784 48.4716 27.1817 47.8273C27.1834 47.5189 27.307 47.2237 27.5256 47.0062C27.7428 46.7902 28.036 46.6683 28.3423 46.6667C28.9866 46.67 29.5062 47.195 29.5028 47.8393C29.5012 48.1477 29.3776 48.4429 29.159 48.6605H29.1695Z"
        fill="#2196F3"
      />
</symbol>

<symbol id="icon-clock" viewBox="0 0 70 70">
<g clip-path="url(#clip0_2286_766)">
<path
          d="M68.4614 33.4715C68.4576 14.9819 53.4656 -0.00373771 34.9754 6.99302e-07C16.4858 0.00373911 1.50017 14.9963 1.50391 33.4859C1.50711 48.0502 10.9252 60.9413 24.7995 65.3713C24.9319 65.413 25.0697 65.4343 25.2081 65.4338C25.4719 65.4333 25.7304 65.3628 25.9573 65.2287C26.2527 65.0541 26.4732 64.7764 26.5768 64.449L35.0315 37.6521C37.3429 37.6404 39.2068 35.7568 39.1945 33.4459C39.1827 31.1345 37.2997 29.2706 34.9883 29.2824C34.3666 29.285 33.753 29.4282 33.1944 29.7011L22.0251 18.5302C21.4707 17.9951 20.5879 18.0106 20.0528 18.5644C19.5305 19.1054 19.5305 19.962 20.0528 20.503L31.2162 31.6792C30.3596 33.4277 30.8493 35.5383 32.3895 36.7303L24.3338 62.2647C8.41354 56.4002 0.261689 38.7405 6.12618 22.8203C11.9907 6.90002 29.6503 -1.25183 45.5706 4.61266C61.4909 10.4771 69.6427 28.1374 63.7782 44.0571C60.913 51.8351 55.0261 58.1252 47.4548 61.4989L46.5842 57.3989C46.4251 56.6454 45.6844 56.1636 44.9308 56.3233C44.6931 56.3741 44.4726 56.4857 44.291 56.6475L35.8978 64.1409C35.322 64.653 35.2708 65.5347 35.7835 66.1105C35.9501 66.2974 36.1637 66.4362 36.403 66.5126L47.1188 69.9327C47.8521 70.1682 48.6377 69.765 48.8732 69.0312C48.948 68.7994 48.9603 68.5527 48.9101 68.3145L48.0545 64.2915C60.4452 59.0678 68.4902 46.918 68.4614 33.4715ZM34.9829 32.0766C35.753 32.0766 36.3779 32.7014 36.3779 33.4715C36.3779 34.2422 35.753 34.8665 34.9829 34.8665C34.2123 34.8665 33.588 34.2422 33.588 33.4715C33.588 32.7014 34.2123 32.0766 34.9829 32.0766ZM39.5774 64.5916L44.3551 60.3298L45.6737 66.543L39.5774 64.5916Z"
          fill="#212121"
        />
<path
          d="M33.5879 6.96732V9.75723C33.5879 10.5279 34.2122 11.1522 34.9828 11.1522C35.753 11.1522 36.3778 10.5279 36.3778 9.75723V6.96732C36.3778 6.1972 35.753 5.57236 34.9828 5.57236C34.2122 5.57236 33.5879 6.1972 33.5879 6.96732Z"
          fill="#2196F3"
        />
<path
          d="M8.4787 32.0765C7.70805 32.0765 7.08374 32.7014 7.08374 33.4715C7.08374 34.2421 7.70805 34.8665 8.4787 34.8665H11.2686C12.0393 34.8665 12.6636 34.2421 12.6636 33.4715C12.6636 32.7014 12.0393 32.0765 11.2686 32.0765H8.4787Z"
          fill="#2196F3"
        />
<path
          d="M61.4865 34.8665C62.2572 34.8665 62.8815 34.2421 62.8815 33.4715C62.8815 32.7014 62.2572 32.0765 61.4865 32.0765H58.6966C57.9265 32.0765 57.3016 32.7014 57.3016 33.4715C57.3016 34.2421 57.9265 34.8665 58.6966 34.8665H61.4865Z"
          fill="#2196F3"
        />
</g>
<defs>
<clipPath id="clip0_2286_766">
<rect width="70" height="70" fill="white" />
</clipPath>
</defs>
</symbol>

<symbol id="icon-diagram" viewBox="0 0 70 70">
<g clip-path="url(#clip0_2286_776)">
<path d="M32.6496 32.7351H34.9817V43.2296H32.6496V32.7351Z" fill="#2196F3" />
<path d="M41.978 37.3993H44.3101V43.2296H41.978V37.3993Z" fill="#2196F3" />
<path d="M23.3211 40.8975H25.6532V43.2296H23.3211V40.8975Z" fill="#2196F3" />
<path d="M16.3248 39.7314H18.6569V43.2295H16.3248V39.7314Z" fill="#2196F3" />
<path
          d="M3.49817 61.8865H59.4689C61.4007 61.8865 62.967 60.3202 62.967 58.3883V53.7241C62.967 51.7922 61.4007 50.2259 59.4689 50.2259H58.3028V21.1468L64.9262 14.8724C66.4635 15.6303 68.3242 15.1702 69.3302 13.7815C70.3369 12.3934 70.1957 10.4821 68.9966 9.25681C67.7975 8.03154 65.8901 7.84877 64.4798 8.82409C63.0701 9.79998 62.569 11.6498 63.2933 13.2036L58.3028 17.9345V15.2442C58.3028 13.3124 56.7365 11.7461 54.8046 11.7461H8.16239C6.23054 11.7461 4.66422 13.3124 4.66422 15.2442V50.2259H3.49817C1.56632 50.2259 0 51.7922 0 53.7241V58.3883C0 60.3202 1.56632 61.8865 3.49817 61.8865ZM66.4652 10.58C67.1091 10.58 67.6312 11.1021 67.6312 11.7461C67.6312 12.39 67.1091 12.9121 66.4652 12.9121C65.8212 12.9121 65.2991 12.39 65.2991 11.7461C65.2991 11.1021 65.8212 10.58 66.4652 10.58ZM6.99634 15.2442C6.99634 14.6003 7.51844 14.0782 8.16239 14.0782H54.8046C55.4486 14.0782 55.9707 14.6003 55.9707 15.2442V20.1413L53.6386 22.3573V17.5763C53.6386 16.9324 53.1165 16.4103 52.4725 16.4103H10.4945C9.85055 16.4103 9.32845 16.9324 9.32845 17.5763V46.7277C9.32845 47.3717 9.85055 47.8938 10.4945 47.8938H52.4725C53.1165 47.8938 53.6386 47.3717 53.6386 46.7277V25.5651L55.9707 23.3554V50.2259H6.99634V15.2442ZM17.4908 30.403C15.9131 30.3984 14.5279 31.4495 14.1083 32.9702C13.6886 34.491 14.3383 36.104 15.6951 36.9091C17.0513 37.7142 18.7793 37.512 19.9129 36.4149L23.9662 38.4486C24.4371 38.6844 25.0081 38.5739 25.3583 38.1805L33.9745 28.4871L42.4443 34.8337C42.8987 35.1742 43.5329 35.1378 43.9452 34.7478L51.3065 27.7748V45.5617H11.6606V18.7424H51.3065V24.5619L43.0564 32.3747L34.5154 25.9716C34.0303 25.6084 33.3476 25.6767 32.9445 26.1293L24.2099 35.9571L20.9446 34.3242C20.9685 34.1841 20.9833 34.0429 20.989 33.9011C20.989 31.9693 19.4227 30.403 17.4908 30.403ZM18.6569 33.9011C18.6569 34.5451 18.1348 35.0672 17.4908 35.0672C16.8469 35.0672 16.3248 34.5451 16.3248 33.9011C16.3248 33.2572 16.8469 32.7351 17.4908 32.7351C18.1348 32.7351 18.6569 33.2572 18.6569 33.9011ZM25.6532 52.558H37.3138V53.7241C37.3138 54.368 36.7917 54.8901 36.1477 54.8901H26.8193C26.1753 54.8901 25.6532 54.368 25.6532 53.7241V52.558ZM2.33211 53.7241C2.33211 53.0801 2.85422 52.558 3.49817 52.558H23.3211V53.7241C23.3211 55.6559 24.8874 57.2223 26.8193 57.2223H36.1477C38.0796 57.2223 39.6459 55.6559 39.6459 53.7241V52.558H59.4689C60.1128 52.558 60.6349 53.0801 60.6349 53.7241V58.3883C60.6349 59.0323 60.1128 59.5544 59.4689 59.5544H3.49817C2.85422 59.5544 2.33211 59.0323 2.33211 58.3883V53.7241Z"
          fill="#212121"
        />
</g>
<defs>
<clipPath id="clip0_2286_776">
<rect width="70" height="70" fill="white" />
</clipPath>
</defs>
</symbol>

<symbol id="icon-guy" viewBox="0 0 55 61">
<path
        d="M54.0635 25.9738C53.4348 25.1256 52.5119 24.5797 51.4642 24.4326C50.4119 24.2833 49.3735 24.5597 48.5335 25.2026L45.7952 27.3014L45.794 27.3026L41.6429 30.4025L38.6725 29.2195C43.9692 26.843 47.6712 21.545 47.6712 15.3942C47.6712 7.03144 40.8402 0.227386 32.4436 0.227386C24.047 0.227386 17.2162 7.03144 17.2162 15.3942C17.2162 18.4253 18.1226 21.244 19.6662 23.6158L13.6204 23.5633C13.6169 23.5633 13.6134 23.5633 13.6099 23.5633C13.5912 23.5633 13.5761 23.5726 13.5586 23.5738C13.4431 23.5785 13.3299 23.6019 13.2191 23.6415C13.1911 23.652 13.162 23.6579 13.1352 23.6706C13.1212 23.6765 13.1072 23.6776 13.0932 23.6846L6.02078 27.1764C6.01955 27.1764 6.01846 27.1764 6.01846 27.1775L1.87663 29.1693C1.8311 29.1891 1.78448 29.2159 1.73895 29.2463C0.0880496 30.3452 -0.474284 32.5036 0.429989 34.2676C0.911793 35.2056 1.73198 35.8964 2.74003 36.2125C3.12859 36.3337 3.52521 36.3933 3.91952 36.3933C4.55308 36.3933 5.18077 36.2382 5.75582 35.9314L8.79157 34.3167L13.7441 31.7593L16.7122 31.7418L4.80848 43.5884C4.80738 43.5896 4.80615 43.5896 4.80492 43.5907L1.8765 46.5074C1.18469 47.1958 0.80433 48.1092 0.80433 49.0835C0.80433 50.0565 1.18469 50.9723 1.8765 51.6619C2.58703 52.3689 3.52152 52.7236 4.45601 52.7236C5.39173 52.7236 6.32498 52.3689 7.03785 51.6619L9.91254 48.7988L13.7206 45.9556L15.6912 47.9179L11.8376 51.7552C11.8365 51.7564 11.8352 51.7564 11.834 51.7575L8.90559 54.6741C8.21378 55.3625 7.83343 56.276 7.83343 57.2502C7.83343 58.2233 8.21378 59.139 8.90559 59.8287C9.61613 60.5356 10.5518 60.8903 11.4863 60.8903C12.4208 60.8903 13.3565 60.5356 14.0682 59.8287L16.9977 56.912L21.6842 52.2453C21.6854 52.2441 21.6854 52.243 21.6865 52.2417L23.8951 50.0542L23.8869 50.046C23.9009 50.0321 23.9207 50.0273 23.9348 50.0122L35.2353 37.6349L42.8281 38.7153C42.8829 38.7235 42.9377 38.7269 42.9926 38.7269C43.1338 38.7269 43.2703 38.6931 43.4021 38.6429C43.4406 38.629 43.4744 38.6103 43.5106 38.5917C43.5526 38.5706 43.5969 38.559 43.6367 38.5322L50.6659 33.8655C50.6916 33.848 50.7056 33.82 50.73 33.8014C50.758 33.7792 50.7931 33.7699 50.8186 33.7453L53.5999 31.1401C55.0471 29.7841 55.2466 27.5628 54.0635 25.9738ZM4.66027 33.8722C4.28114 34.0752 3.85061 34.116 3.43881 33.9854C3.03042 33.8583 2.69915 33.5793 2.50541 33.2025C2.15308 32.5165 2.35721 31.6811 2.97436 31.2297L5.84796 29.8471L6.53977 31.869L6.8303 32.7183L4.66027 33.8722ZM12.3102 29.8741L8.92336 31.6241L8.36459 29.9907L7.96331 28.817L12.3968 26.6282L12.3102 29.8741ZM45.3402 15.3919C45.3402 17.4009 44.8607 19.2957 44.03 20.9908L34.8832 16.8362C34.7875 15.5821 34.1366 14.4842 33.1589 13.8005L36.3615 3.16853C41.5626 4.82298 45.3402 9.67521 45.3402 15.3919ZM19.5519 15.3919C19.5519 8.31593 25.3363 2.55834 32.4461 2.55834C32.9991 2.55834 33.5404 2.60496 34.0759 2.67264L30.9434 13.0714C30.9014 13.0701 30.8617 13.0585 30.8185 13.0585C28.5598 13.0585 26.7222 14.8902 26.7222 17.1419C26.7222 19.3936 28.5598 21.2254 30.8185 21.2254C32.3375 21.2254 33.65 20.3866 34.3582 19.1591L42.8073 22.9976C40.4564 26.1616 36.6938 28.2255 32.4459 28.2255C25.3363 28.2255 19.5519 22.4679 19.5519 15.3919ZM32.5814 17.1419C32.5814 18.1068 31.7903 18.892 30.8185 18.892C29.8467 18.892 29.0557 18.1068 29.0557 17.1419C29.0557 16.1771 29.8467 15.3919 30.8185 15.3919C31.7903 15.3919 32.5814 16.1771 32.5814 17.1419ZM5.39186 50.0075C4.87506 50.5196 4.03846 50.5185 3.52289 50.0087C3.27433 49.7601 3.13788 49.4324 3.13788 49.0835C3.13788 48.7358 3.27433 48.408 3.52289 48.1619L5.62743 46.0652L7.48944 47.9192L5.39186 50.0075ZM12.4222 58.1743C11.9054 58.6865 11.0677 58.6877 10.552 58.1756C10.3034 57.927 10.167 57.5993 10.167 57.2504C10.167 56.9027 10.3034 56.5748 10.552 56.3287L12.6579 54.231L13.5388 55.1073L14.5211 56.085L12.4222 58.1743ZM20.0384 50.5862C20.0371 50.5873 20.036 50.5873 20.0348 50.5885L16.1742 54.4386L15.2933 53.5623L14.311 52.5846L18.168 48.7451C18.168 48.7451 18.168 48.7451 18.168 48.744C18.1693 48.7428 18.1703 48.7428 18.1716 48.7417C18.2591 48.6542 18.3139 48.5492 18.3676 48.4454C18.3828 48.4151 18.4119 48.3894 18.4248 48.3579C18.461 48.2681 18.4668 48.1713 18.4808 48.0767C18.4878 48.0229 18.5112 47.9729 18.5112 47.9179C18.5112 47.8397 18.4832 47.764 18.4669 47.6869C18.4529 47.6169 18.4529 47.5457 18.426 47.4781C18.3817 47.3685 18.3058 47.2717 18.2265 47.1771C18.2044 47.1514 18.1962 47.1187 18.1717 47.0942C18.1717 47.0942 18.1717 47.0942 18.1705 47.0942C18.1693 47.0931 18.1693 47.0906 18.1682 47.0896L14.6529 43.5895C14.6156 43.5522 14.5678 43.537 14.5258 43.5056C14.464 43.4577 14.4045 43.4134 14.3356 43.3795C14.2692 43.3468 14.2015 43.327 14.1315 43.3083C14.0568 43.2872 13.9845 43.2709 13.9063 43.2651C13.8351 43.2604 13.7686 43.2674 13.6975 43.2756C13.6193 43.2849 13.5459 43.2954 13.47 43.3199C13.3965 43.3433 13.3312 43.3794 13.2636 43.4179C13.2204 43.4424 13.1714 43.4506 13.1305 43.4809L9.25136 46.3767L7.2808 44.4143L12.5286 39.1946L22.0674 48.576L20.0384 50.5862ZM34.9545 35.2372C34.9207 35.2326 34.8891 35.2454 34.8554 35.2431C34.7702 35.2385 34.6886 35.2443 34.6034 35.2583C34.5369 35.2699 34.4739 35.2828 34.4109 35.3049C34.3362 35.3306 34.2686 35.3656 34.1996 35.4076C34.1343 35.4472 34.0748 35.4892 34.0177 35.5417C33.9896 35.5662 33.9559 35.5779 33.9302 35.6058L23.6527 46.8621L14.1851 37.5507L20.3825 31.3859C20.8387 30.9309 20.8411 30.1924 20.386 29.735C20.1562 29.5052 19.8541 29.392 19.5519 29.3932V29.3921L14.6985 29.4213L14.7592 25.9049L21.5493 25.9633C24.3166 28.7937 28.176 30.5589 32.4461 30.5589C33.4027 30.5589 34.3361 30.4598 35.2449 30.2905C35.3324 30.3605 35.4186 30.4318 35.5284 30.4761L40.7996 32.5761L41.1332 34.2351L41.5228 36.1717L34.9545 35.2372ZM43.7944 35.6269L43.1096 32.219L46.2736 29.8564L47.102 30.9554L48.3445 32.6051L43.7944 35.6269ZM52.0055 29.4341L50.1726 31.1515L48.1356 28.4471L49.9544 27.053C50.2939 26.7917 50.7221 26.6855 51.1421 26.7403C51.5644 26.7998 51.9378 27.0203 52.1921 27.3621C52.6659 28.0003 52.5853 28.8905 52.0055 29.4341Z"
        fill="#212121"
      />
</symbol>

</defs>
</svg>
